<svg xmlns="http://www.w3.org/2000/svg" viewBox="0 0 1024 1024" version="1.1">
  <path d="M 424.466 188.750 C 382.075 257.823, 343.870 320.323, 321.009 358 C 311.831 373.125, 299.232 393.825, 293.009 404 C 286.787 414.175, 280.483 424.525, 279 427 C 277.517 429.475, 271.354 439.600, 265.304 449.500 C 259.255 459.400, 248.545 476.950, 241.504 488.500 C 234.463 500.050, 222.617 519.400, 215.179 531.500 C 207.741 543.600, 195.954 562.950, 188.987 574.500 C 182.019 586.050, 171.234 603.825, 165.021 614 C 153.550 632.784, 149.275 639.818, 113.671 698.500 C 46.387 809.396, 49.099 804.264, 47.088 824.500 C 46.432 831.100, 45.494 840.325, 45.003 845 C 44.513 849.675, 43.803 858.563, 43.427 864.750 C 42.644 877.620, 42.202 877.113, 51.585 874.102 C 61.808 870.821, 94.816 860.387, 112 855.004 C 121.075 852.161, 138.175 846.751, 150 842.981 C 161.825 839.211, 179.600 833.599, 189.500 830.510 C 205.536 825.506, 218.758 821.315, 259 808.480 C 265.325 806.463, 273.200 803.996, 276.500 802.998 C 283.576 800.858, 307.482 793.401, 332 785.685 C 341.625 782.656, 351.750 779.504, 354.500 778.681 C 369.137 774.297, 429.326 755.007, 429.778 754.555 C 430.244 754.089, 339.845 664.168, 324.642 649.975 C 321.420 646.967, 317.900 643.264, 316.820 641.747 L 314.855 638.987 318.544 625.244 C 320.573 617.685, 323.537 606.550, 325.131 600.500 C 326.724 594.450, 329.824 582.750, 332.018 574.500 C 334.212 566.250, 336.964 555.900, 338.133 551.500 C 339.303 547.100, 341.951 537.425, 344.017 530 C 346.083 522.575, 350.133 507.725, 353.017 497 C 355.901 486.275, 360.483 469.400, 363.199 459.500 C 368.826 438.987, 377.397 407.261, 384 382.500 C 385.100 378.375, 386.871 371.738, 387.935 367.750 C 388.999 363.762, 391.071 356, 392.538 350.500 C 394.006 345, 396.055 337.350, 397.092 333.500 C 398.129 329.650, 400.780 319.750, 402.984 311.500 C 405.188 303.250, 407.893 293.238, 408.996 289.250 C 413.692 272.261, 415.218 266.588, 419.550 250 C 422.064 240.375, 424.963 229.575, 425.994 226 C 427.024 222.425, 429.282 214.100, 431.011 207.500 C 432.740 200.900, 435.920 188.809, 438.078 180.631 C 442.194 165.028, 442.545 163, 441.135 163 C 440.659 163, 433.158 174.588, 424.466 188.750" stroke="none" fill="#f04030" fill-rule="evenodd"/>
  <path d="M 514 75.513 C 514 76.381, 501.087 126.367, 493.983 153 C 492.296 159.325, 488.627 173.275, 485.829 184 C 475.989 221.730, 467.074 255.604, 462.077 274.250 C 460.935 278.512, 459.065 285.488, 457.922 289.750 C 456.780 294.012, 453.856 305.150, 451.425 314.500 C 448.994 323.850, 445.697 336.450, 444.099 342.500 C 442.501 348.550, 439.367 360.475, 437.134 369 C 434.902 377.525, 432.165 387.875, 431.050 392 C 426.419 409.147, 422.910 424.243, 423.435 424.768 C 423.990 425.323, 430.412 423.746, 443 419.963 C 446.575 418.889, 455.800 416.175, 463.500 413.933 C 471.200 411.690, 481.550 408.580, 486.500 407.021 C 491.450 405.462, 496.400 403.968, 497.500 403.701 C 498.600 403.433, 509.175 400.282, 521 396.697 C 532.825 393.112, 548.968 388.313, 556.874 386.031 L 571.247 381.884 573.854 384.192 C 575.287 385.461, 585.469 395.062, 596.480 405.526 C 607.491 415.991, 624.825 432.390, 635 441.970 C 645.175 451.549, 658.010 463.687, 663.522 468.943 C 669.034 474.199, 680.044 484.575, 687.988 492 C 703.331 506.341, 715.445 517.731, 728.491 530.083 C 732.896 534.254, 739.867 540.779, 743.981 544.583 C 756.085 555.773, 765.318 564.438, 786 584.015 C 796.725 594.167, 808.868 605.630, 812.985 609.487 C 817.102 613.344, 824.977 620.790, 830.485 626.034 C 835.993 631.277, 847.025 641.621, 855 649.019 C 862.975 656.418, 872.425 665.222, 876 668.584 C 891.300 682.973, 900.295 691, 901.118 691 C 903.329 691, 901.701 687.389, 893.001 673 C 889.843 667.775, 885.458 660.350, 883.258 656.500 C 881.058 652.650, 874.407 641.175, 868.477 631 C 862.547 620.825, 856.854 611.005, 855.825 609.178 C 854.796 607.351, 849.861 598.801, 844.859 590.178 C 839.857 581.555, 831.482 567.075, 826.249 558 C 821.016 548.925, 815.497 539.475, 813.984 537 C 812.472 534.525, 808.429 527.550, 805 521.500 C 801.571 515.450, 797.521 508.475, 795.999 506 C 794.477 503.525, 792.005 499.250, 790.505 496.500 C 789.005 493.750, 784.733 486.325, 781.012 480 C 764.056 451.178, 739.209 408.367, 718.025 371.477 C 717.071 369.815, 713.005 362.840, 708.991 355.977 C 704.977 349.115, 699.216 339.225, 696.189 334 C 693.162 328.775, 686.858 317.975, 682.180 310 C 674.441 296.806, 652.410 258.975, 634.718 228.500 C 630.887 221.900, 626.968 215.150, 626.009 213.500 C 625.051 211.850, 620.222 203.525, 615.279 195 C 610.335 186.475, 604.511 176.575, 602.337 173 C 600.162 169.425, 596.290 162.675, 593.733 158 C 584.050 140.297, 578.977 133.606, 566 121.422 C 559.125 114.967, 548.997 105.369, 543.493 100.093 C 519.900 77.476, 517.149 75, 515.615 75 C 514.727 75, 514 75.231, 514 75.513" stroke="none" fill="#ffd731" fill-rule="evenodd"/>
  <path d="M 712.529 579.163 C 712.268 579.898, 710.723 585.450, 709.096 591.500 C 707.469 597.550, 703.221 612.850, 699.655 625.500 C 696.089 638.150, 689.784 660.650, 685.642 675.500 C 681.501 690.350, 676.021 709.984, 673.464 719.132 L 668.816 735.763 661.158 738.027 C 656.946 739.273, 651.025 741.085, 648 742.055 C 644.975 743.025, 629.450 747.889, 613.500 752.864 C 597.550 757.839, 576.400 764.445, 566.500 767.544 C 556.600 770.643, 541.525 775.344, 533 777.991 C 519.268 782.256, 485.223 792.928, 432.500 809.497 C 423.150 812.435, 400.425 819.565, 382 825.342 C 363.575 831.118, 326 842.900, 298.500 851.523 C 271 860.147, 236.688 870.839, 222.250 875.283 C 207.813 879.727, 196 883.732, 196 884.182 C 196 884.632, 352.655 885, 544.122 885 C 934.313 885, 901.943 885.635, 926.671 877.498 C 949.064 870.129, 964.044 861.117, 978.750 846.166 C 982.737 842.112, 986 838.466, 986 838.064 C 986 836.867, 966.405 817.905, 910.500 765.003 C 894 749.389, 875.550 731.852, 869.500 726.032 C 863.450 720.212, 850.402 707.812, 840.504 698.475 C 819.040 678.230, 804.706 664.629, 792.500 652.931 C 757.691 619.568, 718.975 582.809, 716.252 580.536 C 713.882 578.558, 712.876 578.187, 712.529 579.163" stroke="none" fill="#2a4fc3" fill-rule="evenodd"/>
  <path d="M 545.500 440.564 C 539.450 442.474, 524.600 446.991, 512.500 450.603 C 500.400 454.215, 475.425 461.683, 457 467.198 C 438.575 472.713, 420.350 478.103, 416.500 479.177 C 412.650 480.251, 409.200 481.438, 408.833 481.815 C 408.466 482.192, 406.803 487.675, 405.136 494 C 403.470 500.325, 396.200 527.550, 388.981 554.500 C 381.762 581.450, 374.537 608.450, 372.925 614.500 L 369.995 625.500 380.748 636.022 C 386.661 641.810, 412.134 666.785, 437.354 691.522 C 462.574 716.260, 483.826 736.643, 484.580 736.819 C 485.972 737.142, 506.384 730.961, 571 710.648 C 580.625 707.623, 597.500 702.347, 608.500 698.924 C 619.500 695.501, 629.033 692.206, 629.684 691.600 C 630.335 690.995, 632.863 683.075, 635.301 674 C 637.739 664.925, 642.512 647.375, 645.907 635 C 649.301 622.625, 653.865 605.975, 656.048 598 C 658.231 590.025, 662.263 575.303, 665.009 565.285 C 667.754 555.267, 670 546.435, 670 545.658 C 670 544.882, 655.263 530.144, 637.250 512.906 C 619.237 495.669, 598.650 475.911, 591.500 468.999 C 584.350 462.087, 574.093 452.173, 568.708 446.966 C 563.322 441.760, 558.372 437.408, 557.708 437.296 C 557.043 437.184, 551.550 438.655, 545.500 440.564" stroke="none" fill="#902e91" fill-rule="evenodd"/>
</svg>
